<svg width="83" height="23" viewBox="0 0 83 23" fill="none" xmlns="http://www.w3.org/2000/svg">
  <g clip-path="url(#logoWithName)">
    <path fill-rule="evenodd" clip-rule="evenodd"
      d="M14.4675 7.00473C14.4675 4.67889 12.9501 2.75731 11.6585 1.57172C10.3316 0.35137 8.58373 0 7.03248 0H1.11264C0.822371 0.00758873 0.546519 0.129022 0.343878 0.33842C0.141237 0.547818 0.027832 0.82862 0.027832 1.12098C0.027832 1.41335 0.141237 1.69415 0.343878 1.90355C0.546519 2.11295 0.822371 2.23438 1.11264 2.24197H7.03248C8.3023 2.24197 9.40702 2.53591 10.162 3.22883C11.3117 4.28671 12.2439 5.64686 12.2439 7.007C12.2439 9.388 10.893 10.8449 10.484 11.1388V11.4932C10.8915 11.7864 12.2439 13.2432 12.2439 15.6243C12.2439 16.9844 11.3117 18.3445 10.162 19.4024C9.40702 20.0953 8.59349 20.7626 7.03248 20.7626H1.11264C0.822371 20.7702 0.546519 20.8916 0.343878 21.101C0.141237 21.3104 0.027832 21.5912 0.027832 21.8836C0.027832 22.1759 0.141237 22.4567 0.343878 22.6661C0.546519 22.8755 0.822371 22.9969 1.11264 23.0045H7.03248C8.88017 23.0045 10.3346 22.2799 11.6615 21.0595C12.9531 19.8747 14.4705 17.9524 14.4705 15.6265C14.4784 14.1022 14.0523 12.6075 13.2427 11.3194C14.0528 10.0289 14.4779 8.53134 14.4675 7.00473Z"
      fill="#2E79E6" />
    <path fill-rule="evenodd" clip-rule="evenodd"
      d="M7.7886 7.28507C7.7886 6.96317 7.60623 6.70097 7.22273 6.48032C6.99759 6.3496 6.66437 6.30426 6.06923 6.30426H1.13104C0.835859 6.30426 0.55277 6.1862 0.344048 5.97604C0.135325 5.76589 0.0180664 5.48086 0.0180664 5.18366C0.0180664 4.88645 0.135325 4.60142 0.344048 4.39127C0.55277 4.18111 0.835859 4.06305 1.13104 4.06305H6.07224C6.65386 4.06305 7.53569 4.07741 8.32895 4.53381C9.07943 4.96603 10.0183 5.84181 10.0183 7.28507C10.0183 8.52356 9.32034 9.38045 8.66742 9.88295C7.72406 10.6099 6.55705 10.6476 5.78705 10.6476H1.13404C0.843766 10.6401 0.567914 10.5186 0.365272 10.3092C0.162631 10.0998 0.0492261 9.81903 0.0492261 9.52666C0.0492261 9.2343 0.162631 8.9535 0.365272 8.7441C0.567914 8.5347 0.843766 8.41327 1.13404 8.40568H5.7878C6.56906 8.40568 7.02686 8.32483 7.31579 8.10343C7.6385 7.85558 7.7886 7.58808 7.7886 7.28507Z"
      fill="#2E79E6" />
    <path fill-rule="evenodd" clip-rule="evenodd"
      d="M7.7886 15.6907C7.7886 15.3688 7.60623 15.1059 7.22273 14.886C6.99759 14.7553 6.66437 14.7099 6.06923 14.7099H1.13104C0.835859 14.7099 0.55277 14.5919 0.344048 14.3817C0.135325 14.1716 0.0180664 13.8865 0.0180664 13.5893C0.0180664 13.2921 0.135325 13.0071 0.344048 12.7969C0.55277 12.5868 0.835859 12.4687 1.13104 12.4687H6.07224C6.65386 12.4687 7.53569 12.4831 8.32895 12.9395C9.07943 13.3717 10.0183 14.2475 10.0183 15.6907C10.0183 16.9292 9.32034 17.7861 8.66742 18.2886C7.72481 19.0155 6.5578 19.0571 5.7878 19.0571H1.13479C0.844516 19.0495 0.568664 18.9281 0.366023 18.7187C0.163382 18.5093 0.0499767 18.2285 0.0499767 17.9361C0.0499767 17.6437 0.163382 17.3629 0.366023 17.1535C0.568664 16.9442 0.844516 16.8227 1.13479 16.8151H5.7878C6.56906 16.8151 7.02686 16.7343 7.31579 16.5129C7.6385 16.2612 7.7886 15.9938 7.7886 15.6907Z"
      fill="#2E79E6" />
    <path
      d="M28.4597 11.8438H24.7883L24.7688 9.91393H27.9171C28.457 9.91393 28.9072 9.83837 29.268 9.68724C29.6034 9.5567 29.8899 9.32396 30.0875 9.02153C30.2872 8.7041 30.3883 8.33394 30.3779 7.95835C30.3779 7.49439 30.2891 7.11657 30.1115 6.8249C29.9265 6.52183 29.6393 6.29597 29.3025 6.18865C28.9318 6.05264 28.4632 5.98463 27.8968 5.98463H25.6664V18.2932H22.9526V3.82427H27.8968C28.6307 3.81496 29.363 3.89514 30.0778 4.06305C30.6655 4.18919 31.2226 4.43138 31.7168 4.77562C32.1544 5.08855 32.5046 5.50959 32.7337 5.99823C32.9704 6.48889 33.0887 7.07199 33.0887 7.74753C33.0936 8.32407 32.9509 8.89217 32.6744 9.39708C32.4043 9.89328 31.9862 10.2963 31.4204 10.6061C30.8545 10.9159 30.144 11.0947 29.289 11.1426L28.4597 11.8438ZM28.3411 18.2932H23.9883L25.1245 16.1464H28.3419C28.8812 16.1464 29.3255 16.057 29.6747 15.8782C30.007 15.721 30.2828 15.4642 30.4643 15.1429C30.6459 14.8079 30.7377 14.4311 30.7307 14.0495C30.7405 13.6458 30.6594 13.2452 30.4935 12.8775C30.343 12.5466 30.0856 12.2768 29.7633 12.1121C29.4346 11.9327 29.0003 11.8433 28.4605 11.8438H25.6371L25.6566 9.9162H29.2522L29.8744 10.6613C30.7029 10.6678 31.3783 10.8333 31.9007 11.1577C32.3977 11.4539 32.7997 11.8877 33.0587 12.4075C33.3098 12.9204 33.4383 13.4853 33.4339 14.0571C33.4339 14.984 33.2338 15.7623 32.8335 16.392C32.4333 17.0217 31.8542 17.4955 31.0962 17.8133C30.3387 18.1337 29.4203 18.2937 28.3411 18.2932Z"
      fill="white" />
    <path
      d="M38.3492 7.54124V18.2932H35.7338V7.54124H38.3492ZM35.5567 4.72876C35.5516 4.54769 35.584 4.36754 35.652 4.19983C35.72 4.03211 35.822 3.88052 35.9514 3.75475C36.2211 3.49632 36.5828 3.36711 37.0366 3.36711C37.4904 3.36711 37.8492 3.49632 38.1128 3.75475C38.2449 3.87898 38.3493 4.03006 38.4191 4.19798C38.4888 4.3659 38.5223 4.54682 38.5173 4.72876C38.5213 4.909 38.4873 5.08804 38.4176 5.25409C38.3478 5.42015 38.244 5.56946 38.1128 5.6922C37.8497 5.95062 37.4909 6.07984 37.0366 6.07984C36.5823 6.07984 36.2206 5.95062 35.9514 5.6922C35.8227 5.56807 35.7211 5.41827 35.6532 5.25238C35.5852 5.0865 35.5523 4.90816 35.5567 4.72876Z"
      fill="white" />
    <path
      d="M43.3933 9.83837V18.2932H40.7876V7.54124H43.2349L43.3933 9.83837ZM42.9783 12.5314H42.209C42.2059 11.8106 42.3122 11.0936 42.5242 10.4051C42.7071 9.80972 42.9983 9.25372 43.3828 8.76537C43.7429 8.31866 44.1972 7.9581 44.7126 7.70975C45.2516 7.45986 45.8395 7.33512 46.4328 7.34477C46.9055 7.33838 47.3759 7.41247 47.8242 7.56391C48.2307 7.70448 48.5968 7.94316 48.8906 8.25909C49.2151 8.61617 49.4516 9.04508 49.581 9.51118C49.7461 10.0215 49.8284 10.6512 49.8279 11.4003V18.2969H47.2012V11.3768C47.2012 10.8862 47.129 10.4985 46.9844 10.2139C46.8601 9.94408 46.6424 9.72915 46.372 9.60941C46.0629 9.48135 45.7304 9.42033 45.3963 9.43032C45.0438 9.42071 44.6943 9.49919 44.3792 9.65874C44.0641 9.81828 43.7932 10.0539 43.5907 10.3446C43.3875 10.6447 43.2353 10.9766 43.1404 11.327C43.0307 11.7181 42.9761 12.1228 42.9783 12.5292V12.5314Z"
      fill="white" />
    <path
      d="M51.6635 13.0264V12.8178C51.6557 12.0788 51.769 11.3435 51.9989 10.6416C52.2056 10.0025 52.5373 9.41155 52.9746 8.90364C53.4066 8.40947 53.9427 8.01863 54.5438 7.75961C55.2115 7.47231 55.932 7.33092 56.6579 7.34477C57.4585 7.34477 58.1689 7.48406 58.7893 7.76264C59.3931 8.01968 59.9317 8.41016 60.3653 8.90515C60.8026 9.41306 61.1343 10.004 61.341 10.6431C61.5709 11.345 61.6842 12.0803 61.6764 12.8193V13.0279C61.6831 13.7669 61.5697 14.5019 61.341 15.2041C61.1315 15.842 60.8 16.4324 60.3653 16.9421C59.9331 17.4359 59.3971 17.8264 58.7961 18.0854C58.1777 18.3564 57.4705 18.4921 56.6745 18.4926C55.9468 18.5046 55.2244 18.366 54.5521 18.0854C53.9485 17.8276 53.41 17.4369 52.9761 16.9421C52.5414 16.4324 52.2099 15.842 52.0004 15.2041C51.771 14.5015 51.6572 13.7659 51.6635 13.0264ZM54.2692 12.8178V13.0264C54.2663 13.4707 54.3126 13.914 54.4072 14.348C54.4881 14.73 54.6316 15.0957 54.832 15.4301C55.0144 15.7332 55.2687 15.9861 55.572 16.166C55.9127 16.3453 56.2932 16.434 56.6775 16.4237C57.0555 16.434 57.4297 16.3452 57.7634 16.166C58.0667 15.9861 58.321 15.7332 58.5034 15.4301C58.7096 15.0974 58.8564 14.7309 58.9372 14.3472C59.0321 13.9133 59.0786 13.47 59.076 13.0256V12.8171C59.0787 12.3792 59.0321 11.9424 58.9372 11.5151C58.8563 11.1313 58.7095 10.7646 58.5034 10.4315C58.3142 10.1109 58.0434 9.84704 57.7189 9.66717C57.3945 9.48729 57.0282 9.39796 56.6579 9.40841C56.2773 9.398 55.9012 9.49456 55.572 9.68724C55.2669 9.86878 55.0123 10.1251 54.832 10.4323C54.6317 10.7673 54.4881 11.1335 54.4072 11.5159C54.3126 11.9432 54.2662 12.38 54.2692 12.8178Z"
      fill="white" />
    <path d="M66.3401 3.02934V18.2932H63.7246V3.02934H66.3401Z" fill="white" />
    <path d="M71.5905 3.02934V18.2932H68.9751V3.02934H71.5905Z" fill="white" />
    <path
      d="M79.9599 16.0074V11.0474C79.9681 10.7224 79.904 10.3997 79.7723 10.1028C79.6509 9.84201 79.4507 9.62648 79.2004 9.48699C78.9438 9.3409 78.6186 9.26811 78.2248 9.26861C77.9097 9.26182 77.5967 9.32288 77.307 9.4477C77.0645 9.55455 76.8584 9.73055 76.7141 9.95397C76.574 10.1729 76.5019 10.4289 76.5069 10.6892H73.89C73.8895 10.2487 73.9981 9.81494 74.2059 9.4273C74.4282 9.01007 74.735 8.64451 75.1065 8.3543C75.5282 8.02183 76.0062 7.76913 76.5174 7.60848C77.1185 7.42277 77.7447 7.33228 78.3734 7.34023C79.1824 7.34023 79.9029 7.47952 80.5348 7.7581C81.1466 8.00757 81.6696 8.43677 82.0358 8.98978C82.4045 9.53989 82.5886 10.2323 82.5881 11.067V15.7572C82.5825 16.2197 82.6157 16.6817 82.6872 17.1385C82.7476 17.4789 82.8539 17.8094 83.0031 18.1209V18.2901H80.3479C80.2065 17.9602 80.1103 17.6125 80.062 17.2564C79.9959 16.8434 79.9617 16.4257 79.9599 16.0074ZM80.3254 11.7441L80.3449 13.3045H78.6939C78.331 13.2988 77.969 13.3423 77.6177 13.4337C77.342 13.497 77.083 13.6192 76.8582 13.7918C76.6662 13.9369 76.5134 14.1281 76.4139 14.348C76.311 14.5756 76.2597 14.8234 76.2638 15.0734C76.2602 15.3234 76.3212 15.57 76.4409 15.789C76.5695 16.0038 76.754 16.1792 76.9745 16.296C77.2322 16.4192 77.5148 16.4803 77.8 16.4743C78.2171 16.484 78.6299 16.3884 79.0008 16.1963C79.316 16.0281 79.5893 15.7901 79.8001 15.5003C79.9907 15.2293 80.0928 14.9711 80.1063 14.7258L80.8568 15.8593C80.7498 16.1615 80.6109 16.4513 80.4425 16.7237C80.2473 17.0413 80.008 17.3291 79.7318 17.5783C79.0553 18.189 78.1725 18.5161 77.2642 18.4926C76.6217 18.5037 75.9858 18.3607 75.409 18.0755C74.885 17.8165 74.4387 17.422 74.1159 16.9323C73.8014 16.44 73.6404 15.8641 73.6536 15.2789C73.643 14.7575 73.7511 14.2405 73.9695 13.7677C74.1836 13.3256 74.5063 12.9458 74.9069 12.6644C75.371 12.3376 75.8938 12.1048 76.4461 11.9791C77.1411 11.8113 77.854 11.7311 78.5685 11.7403L80.3254 11.7441Z"
      fill="white" />
  </g>
  <defs>
    <clipPath id="logoWithName">
      <rect width="83" height="23" fill="white" />
    </clipPath>
  </defs>
</svg>